<svg width="101" height="83" viewBox="0 0 101 83" fill="none" xmlns="http://www.w3.org/2000/svg">
<path d="M16.4881 71.123C17.8788 70.5095 18.9514 69.6249 19.708 68.4699C20.4645 67.315 20.8433 65.9393 20.8433 64.3448C20.8433 61.9115 20.0147 60.0046 18.3585 58.6252C16.7023 57.2449 14.3812 56.5547 11.397 56.5547H2.22656V78.0238H7.1952V72.0433H11.5195C11.5981 72.0433 11.6729 72.0395 11.7514 72.0386L15.8747 78.0238H21.2417L16.4451 71.1408C16.4591 71.1343 16.4741 71.1296 16.4881 71.123ZM14.6786 61.5841C15.4351 62.2388 15.8129 63.159 15.8129 64.3448C15.8129 65.5306 15.4342 66.4256 14.6786 67.0896C13.922 67.7545 12.7773 68.0865 11.2436 68.0865H7.1952V60.6031H11.2436C12.7773 60.6031 13.922 60.9304 14.6786 61.5841Z" fill="white"/>
<path d="M28.4804 56.5547H23.5117V78.0238H28.4804V56.5547Z" fill="white"/>
<path d="M43.3506 71.8244C43.7013 70.3534 43.2477 68.8412 42.1704 67.9799C40.6226 66.7379 38.2211 67.1859 37.0287 68.6261C35.9364 69.9503 36.2535 71.6411 36.3058 71.9011H33.1842C33.0645 71.5149 32.9392 70.9566 32.9373 70.2786C32.9354 69.5276 33.0869 68.916 33.2225 68.512C33.3965 68.0715 33.7303 67.3786 34.3653 66.723C35.6951 65.3473 37.4234 65.093 38.5157 64.934C39.203 64.833 40.2785 64.7507 41.5999 64.9714C42.8886 63.7706 45.3191 61.8722 48.8364 61.0876C49.91 60.8482 50.9069 60.7518 51.7841 60.7369C50.8545 59.5585 49.6706 58.6084 48.2313 57.8892C46.4535 57.0008 44.398 56.5547 42.0666 56.5547H32.3145V78.0247H42.0666C44.397 78.0247 46.4526 77.5786 48.2313 76.6902C50.011 75.7999 51.4016 74.5524 52.4022 72.9485C52.636 72.5716 52.8446 72.1807 53.0223 71.7739C49.7996 71.7926 46.5751 71.8076 43.3524 71.8244H43.3506ZM39.7623 73.3385C38.4998 73.3385 37.4767 72.3154 37.4767 71.0548C37.4767 69.7941 38.4998 68.7692 39.7623 68.7692C41.0248 68.7692 42.046 69.7923 42.046 71.0548C42.046 72.3173 41.0229 73.3385 39.7623 73.3385Z" fill="white"/>
<path d="M61.3264 74.0361V69.0675H71.2946V65.2033H61.3264V60.5414H72.6132V56.5547H56.3887V78.0238H73.0116V74.0361H61.3264Z" fill="white"/>
<path d="M32.3138 31.3636H27.4378L21.6901 40.8951L15.9668 31.3636H10.6914L19.0033 45.1801V52.8336H23.972V45.2324L32.3138 31.3636Z" fill="white"/>
<path d="M71.2035 43.2031C71.2035 45.2483 70.7845 46.7203 69.9466 47.62C69.1077 48.5196 67.9322 48.9694 66.4191 48.9694C64.9059 48.9694 63.7304 48.5196 62.8925 47.62C62.0536 46.7203 61.6347 45.2483 61.6347 43.2031V31.3646H56.666V43.3873C56.666 46.5361 57.5254 48.9592 59.2424 50.6556C60.9604 52.3529 63.3414 53.2012 66.3882 53.2012C69.435 53.2012 71.817 52.3529 73.5349 50.6556C75.2519 48.9592 76.1113 46.5361 76.1113 43.3873V31.3646H71.2035V43.2031Z" fill="white"/>
<path d="M94.0233 45.9329C95.4139 45.3194 96.4866 44.4347 97.2431 43.2798C97.9997 42.1248 98.3784 40.7491 98.3784 39.1547C98.3784 36.7213 97.5499 34.8145 95.8937 33.4351C94.2375 32.0547 91.9163 31.3646 88.9321 31.3646H79.7617V52.8336H84.7304V46.8531H89.0547C89.1332 46.8531 89.208 46.8494 89.2866 46.8484L93.4098 52.8336H98.7768L93.9803 45.9506C93.9943 45.9441 94.0093 45.9394 94.0233 45.9329ZM92.2137 36.394C92.9703 37.0486 93.3481 37.9688 93.3481 39.1547C93.3481 40.3405 92.9693 41.2354 92.2137 41.8994C91.4571 42.5643 90.3125 42.8963 88.7788 42.8963H84.7304V35.413H88.7788C90.3125 35.413 91.4571 35.7403 92.2137 36.394Z" fill="white"/>
<path d="M50.9602 50.1422C54.1043 46.9906 55.176 42.5082 53.7321 38.5449C52.0487 33.9242 47.1895 30.6782 41.8412 31.0204C36.2086 31.3805 32.3734 35.5589 31.2605 39.4156C30.3291 42.642 31.3419 45.5111 31.4896 45.9142C32.2153 47.8865 33.3843 49.2154 34.11 49.9252C34.9882 49.7915 35.7242 49.6344 36.2806 49.5016C36.2806 49.5016 38.2538 49.0302 39.622 48.3475C39.6762 48.3204 39.9802 48.1671 40.3468 47.9164C40.7302 47.6536 40.9631 47.4909 41.1576 47.1935C41.238 47.071 41.3979 46.8204 41.4278 46.4594C41.4615 46.0563 41.3128 45.7561 41.2558 45.643C41.0893 45.3157 40.8499 45.1183 40.5806 44.9201C40.0148 44.5049 39.5612 44.2683 38.9964 43.9643C37.7834 43.3116 37.5627 43.1554 37.3991 43.0319C36.9829 42.7168 36.6603 42.4671 36.4162 42.0173C36.3189 41.8387 36.0767 41.3767 36.1338 40.7697C36.1908 40.1656 36.5116 39.7569 36.7108 39.511C37.1952 38.9115 37.7984 38.5945 38.4427 38.3214C39.7688 37.7603 40.9537 37.52 41.8945 37.3657C42.8774 37.2039 44.1913 37.0383 45.7643 36.9813C44.9011 37.2609 44.1735 37.5396 43.6022 37.7743C43.1252 37.9707 42.4547 38.2606 41.9067 38.8124C41.6813 39.0396 41.4886 39.2987 41.4765 39.6288C41.4737 39.698 41.4765 39.8757 41.5868 40.1067C41.8889 40.7342 42.6679 41.0643 42.9746 41.1906C44.2315 41.7068 45.0077 41.992 45.4557 42.1697C46.9239 42.7523 47.89 43.3817 48.0845 43.5108C48.6465 43.882 49.3199 44.3337 49.9885 45.1202C50.3224 45.513 50.7086 45.9675 50.9836 46.6829C51.3782 47.7116 51.2838 48.6075 51.2417 48.9685C51.1828 49.467 51.0612 49.87 50.9593 50.1459L50.9602 50.1422Z" fill="white"/>
<path d="M15.0234 11.5724C15.6471 10.959 16.3878 10.4886 17.2472 10.1622C18.1057 9.83487 19.0568 9.67122 20.0995 9.67122C21.1423 9.67122 22.185 9.87041 23.1052 10.2697C24.0254 10.6691 24.8737 11.2769 25.6508 12.0943L28.8407 9.15032C27.798 7.94393 26.5149 7.02371 24.9915 6.38965C23.4681 5.7556 21.7558 5.43857 19.8545 5.43857C18.1375 5.43857 16.5627 5.70977 15.1318 6.25124C13.7001 6.79365 12.4535 7.56518 11.3902 8.56676C10.3269 9.56835 9.50389 10.7439 8.92127 12.0933C8.33865 13.4428 8.04688 14.9251 8.04688 16.5402C8.04688 18.1552 8.33865 19.6384 8.92127 20.9879C9.50389 22.3374 10.3212 23.5129 11.3752 24.5145C12.4282 25.517 13.6645 26.2885 15.086 26.83C16.5066 27.3715 18.0655 27.6427 19.7629 27.6427C21.2966 27.6427 22.835 27.407 24.3789 26.9375C25.922 26.4671 27.2771 25.7929 28.4423 24.9138V16.2035H23.9029V22.5057C23.5738 22.6768 23.2418 22.8209 22.906 22.9359C21.9755 23.2529 21.0198 23.411 20.0388 23.411C19.0577 23.411 18.0805 23.2473 17.2323 22.92C16.3831 22.5927 15.6471 22.1176 15.0234 21.4938C14.3996 20.8701 13.9198 20.1397 13.5822 19.3008C13.2446 18.4629 13.0763 17.5427 13.0763 16.5402C13.0763 15.5376 13.2446 14.5875 13.5822 13.7496C13.9198 12.9116 14.3996 12.185 15.0234 11.5715V11.5724Z" fill="white"/>
<path d="M53.6836 9.85438H60.5535V27.275H65.5221V9.85438H72.392V5.80597H53.6836V9.85438Z" fill="white"/>
<path d="M44.9071 15.6348C44.9071 17.0198 43.7849 18.1401 42.3999 18.1401C41.0149 18.1401 39.8945 17.0198 39.8945 15.6348C39.8945 14.2497 41.0168 13.1294 42.3999 13.1294C43.783 13.1294 44.9071 14.2516 44.9071 15.6348Z" fill="white"/>
<path d="M53.2519 12.1082C52.6599 10.7699 51.8369 9.59907 50.7839 8.59656C49.7309 7.59591 48.4927 6.81877 47.0722 6.26607C45.6516 5.71338 44.0927 5.4375 42.3953 5.4375C40.6979 5.4375 39.1633 5.71244 37.7334 6.26607C36.3016 6.81877 35.0541 7.59684 33.9917 8.59656C32.9275 9.59907 32.1045 10.7737 31.5219 12.125C30.9393 13.4735 30.6484 14.9446 30.6484 16.541C30.6484 18.1373 30.9393 19.6084 31.5219 20.9569C32.1045 22.3054 32.9219 23.4828 33.9768 24.4835C35.0279 25.486 36.2754 26.2631 37.7184 26.814C39.1596 27.3667 40.7279 27.6425 42.4252 27.6425C44.1226 27.6425 45.6516 27.3676 47.0722 26.814C48.4927 26.2631 49.7309 25.4916 50.7839 24.4984C51.8369 23.5071 52.6599 22.3326 53.2519 20.9719C53.8457 19.6112 54.1422 18.1354 54.1422 16.541C54.1422 14.9465 53.8457 13.4474 53.2519 12.1082ZM46.1706 18.6189C44.8969 19.975 43.6241 21.3319 42.3504 22.6889C41.159 21.4226 39.9694 20.1573 38.7771 18.8929C38.4432 18.5086 37.7671 17.6174 37.5875 16.3128C37.3743 14.7557 37.9176 12.9536 39.3728 11.7968C39.4644 11.7238 41.5293 10.1462 44.0122 11.029C45.8574 11.6845 47.1133 13.41 47.2368 15.271C47.3546 17.0114 46.4428 18.271 46.1706 18.6189Z" fill="white"/>
</svg>
