<?xml version="1.0" encoding="UTF-8"?>
<svg id="Layer_1" xmlns="http://www.w3.org/2000/svg" version="1.1" viewBox="0 0 1080 1080">
  <!-- Generator: Adobe Illustrator 29.5.0, SVG Export Plug-In . SVG Version: 2.1.0 Build 137)  -->
  <defs>
    <style>
      .st0 {
        fill: #f1582b;
      }
    </style>
  </defs>
  <g>
    <path class="st0" d="M305.76,742.47c9.58-4.23,16.97-10.32,22.18-18.28,5.21-7.96,7.82-17.43,7.82-28.42,0-16.76-5.71-29.9-17.11-39.4-11.41-9.51-27.4-14.26-47.96-14.26h-63.17v147.89h34.23v-41.2h29.79c.54,0,1.06-.03,1.59-.03l28.41,41.23h36.97l-33.04-47.42c.1-.04.2-.08.3-.12ZM293.3,676.76c5.21,4.51,7.82,10.85,7.82,19.02s-2.61,14.33-7.82,18.91c-5.21,4.58-13.1,6.87-23.66,6.87h-27.89v-51.55h27.89c10.56,0,18.45,2.25,23.66,6.76Z"/>
    <rect class="st0" x="354.14" y="642.11" width="34.23" height="147.89"/>
    <path class="st0" d="M490.81,747.3c2.41-10.13-.71-20.55-8.13-26.49-10.66-8.56-27.21-5.47-35.42,4.45-7.52,9.13-5.34,20.77-4.98,22.56h-21.5c-.83-2.66-1.69-6.51-1.7-11.18-.01-5.18,1.03-9.38,1.96-12.17,1.2-3.03,3.5-7.81,7.87-12.33,9.16-9.47,21.06-11.23,28.59-12.33,4.74-.7,12.15-1.26,21.24.26,8.88-8.27,25.62-21.35,49.85-26.76,7.4-1.65,14.26-2.31,20.3-2.41-6.4-8.12-14.56-14.66-24.47-19.62-12.25-6.12-26.41-9.19-42.46-9.19h-67.18v147.9h67.18c16.06,0,30.22-3.07,42.46-9.19,12.26-6.13,21.84-14.73,28.73-25.78,1.61-2.59,3.05-5.29,4.27-8.09-22.2.13-44.41.23-66.61.35ZM466.09,757.73c-8.7,0-15.75-7.05-15.75-15.73s7.05-15.75,15.75-15.75,15.73,7.05,15.73,15.75-7.05,15.73-15.73,15.73Z"/>
    <polygon class="st0" points="614.64 762.54 614.64 728.31 683.3 728.31 683.3 701.69 614.64 701.69 614.64 669.58 692.39 669.58 692.39 642.11 580.62 642.11 580.62 790.01 695.13 790.01 695.13 762.54 614.64 762.54"/>
  </g>
  <g>
    <polygon class="st0" points="414.65 468.59 381.06 468.59 341.47 534.24 302.04 468.59 265.7 468.59 322.96 563.76 322.96 616.48 357.18 616.48 357.18 564.12 414.65 468.59"/>
    <path class="st0" d="M682.55,550.14c0,14.09-2.89,24.23-8.66,30.42-5.78,6.2-13.87,9.3-24.3,9.3s-18.52-3.1-24.3-9.3c-5.78-6.2-8.66-16.34-8.66-30.42v-81.55h-34.23v82.82c0,21.69,5.92,38.38,17.75,50.07,11.83,11.69,28.24,17.54,49.23,17.54s37.4-5.84,49.23-17.54c11.83-11.69,17.75-28.38,17.75-50.07v-82.82h-33.81v81.55Z"/>
    <path class="st0" d="M839.73,568.94c9.58-4.23,16.97-10.32,22.18-18.28,5.21-7.96,7.82-17.43,7.82-28.42,0-16.76-5.71-29.9-17.11-39.4-11.41-9.51-27.4-14.26-47.96-14.26h-63.17v147.89h34.23v-41.2h29.79c.54,0,1.06-.03,1.59-.03l28.41,41.23h36.97l-33.04-47.42c.1-.04.2-.08.3-.12ZM827.27,503.23c5.21,4.51,7.82,10.85,7.82,19.02s-2.61,14.33-7.82,18.91c-5.21,4.58-13.1,6.87-23.66,6.87h-27.89v-51.55h27.89c10.56,0,18.45,2.25,23.66,6.76Z"/>
    <path class="st0" d="M543.11,597.94c21.66-21.71,29.04-52.59,19.1-79.89-11.59-31.83-45.07-54.19-81.91-51.83-38.8,2.48-65.22,31.26-72.89,57.83-6.42,22.23.56,41.99,1.58,44.76,5,13.58,13.05,22.74,18.05,27.63,6.05-.92,11.12-2,14.95-2.92,0,0,13.59-3.25,23.02-7.95.38-.19,2.47-1.24,4.99-2.97,2.64-1.81,4.25-2.93,5.59-4.98.55-.84,1.65-2.57,1.86-5.06.23-2.78-.79-4.85-1.18-5.62-1.15-2.25-2.8-3.62-4.65-4.98-3.9-2.86-7.02-4.49-10.92-6.59-8.35-4.5-9.87-5.57-11-6.43-2.87-2.17-5.09-3.89-6.77-6.99-.67-1.23-2.34-4.41-1.95-8.59.39-4.16,2.61-6.98,3.98-8.67,3.34-4.13,7.49-6.31,11.93-8.19,9.13-3.87,17.3-5.52,23.78-6.59,6.77-1.11,15.82-2.26,26.66-2.65-5.95,1.93-10.96,3.84-14.89,5.46-3.29,1.35-7.91,3.35-11.68,7.15-1.55,1.56-2.88,3.35-2.96,5.62-.02.47,0,1.7.76,3.29,2.08,4.33,7.44,6.6,9.56,7.47,8.66,3.56,14.01,5.52,17.09,6.75,10.11,4.01,16.77,8.35,18.11,9.24,3.87,2.56,8.51,5.67,13.12,11.08,2.3,2.71,4.96,5.84,6.85,10.76,2.72,7.09,2.07,13.26,1.78,15.74-.4,3.43-1.25,6.21-1.95,8.11Z"/>
  </g>
  <g>
    <path class="st0" d="M297.35,332.24c4.3-4.22,9.4-7.46,15.32-9.72,5.92-2.25,12.47-3.38,19.65-3.38s14.37,1.37,20.71,4.12c6.34,2.75,12.18,6.94,17.54,12.57l21.97-20.28c-7.18-8.31-16.02-14.65-26.51-19.02-10.49-4.36-22.29-6.55-35.39-6.55-11.83,0-22.68,1.87-32.54,5.6-9.86,3.73-18.45,9.05-25.78,15.95-7.33,6.9-12.99,15-17.01,24.3-4.01,9.3-6.02,19.51-6.02,30.63s2.01,21.34,6.02,30.64,9.65,17.4,16.9,24.3c7.25,6.9,15.77,12.22,25.56,15.95,9.79,3.73,20.53,5.6,32.22,5.6,10.56,0,21.16-1.62,31.8-4.86,10.63-3.24,19.97-7.89,27.99-13.94v-60h-31.27v43.41c-2.27,1.18-4.55,2.17-6.87,2.96-6.41,2.19-12.99,3.28-19.75,3.28s-13.49-1.13-19.33-3.38c-5.85-2.25-10.92-5.53-15.21-9.83-4.3-4.29-7.6-9.33-9.93-15.11-2.32-5.77-3.49-12.11-3.49-19.02s1.16-13.45,3.49-19.23c2.32-5.77,5.63-10.78,9.93-15Z"/>
    <polygon class="st0" points="563.66 320.41 610.99 320.41 610.99 440.42 645.21 440.42 645.21 320.41 692.54 320.41 692.54 292.53 563.66 292.53 563.66 320.41"/>
    <g>
      <path class="st0" d="M503.2,360.23c0,9.54-7.73,17.26-17.27,17.26s-17.26-7.72-17.26-17.26,7.73-17.26,17.26-17.26,17.27,7.73,17.27,17.26Z"/>
      <path class="st0" d="M560.69,335.94c-4.08-9.22-9.74-17.28-17-24.19-7.25-6.89-15.79-12.25-25.57-16.06-9.78-3.81-20.52-5.7-32.22-5.7s-22.26,1.9-32.11,5.7c-9.86,3.81-18.46,9.16-25.78,16.06-7.33,6.91-13,15-17.01,24.3-4.01,9.29-6.01,19.42-6.01,30.42s2,21.13,6.01,30.42c4.01,9.29,9.64,17.4,16.91,24.29,7.24,6.91,15.84,12.26,25.78,16.06,9.93,3.81,20.73,5.7,32.42,5.7s22.23-1.9,32.01-5.7c9.78-3.79,18.31-9.11,25.57-15.95,7.25-6.83,12.92-14.92,17-24.29,4.09-9.37,6.13-19.54,6.13-30.53s-2.04-21.31-6.13-30.54ZM511.92,380.79c-8.78,9.34-17.54,18.69-26.32,28.03-8.21-8.72-16.4-17.44-24.61-26.15-2.3-2.65-6.96-8.79-8.2-17.77-1.47-10.73,2.27-23.14,12.3-31.11.63-.5,14.86-11.37,31.96-5.29,12.71,4.52,21.36,16.4,22.21,29.22.81,11.99-5.47,20.66-7.34,23.06Z"/>
    </g>
  </g>
</svg>